<svg class="tw-w-[25px] tw-h-[24px] xl:tw-w-[28px] xl:tw-h-[27px]" viewBox="0 0 25 24" fill="none" xmlns="http://www.w3.org/2000/svg"><g clip-path="url(#clip0_1_4658)"><path d="M12.918 2.16094C16.1242 2.16094 16.5039 2.175 17.7648 2.23125C18.9367 2.28281 19.5695 2.47969 19.9914 2.64375C20.5492 2.85938 20.9523 3.12188 21.3695 3.53906C21.7914 3.96094 22.0492 4.35938 22.2648 4.91719C22.4289 5.33906 22.6258 5.97656 22.6773 7.14375C22.7336 8.40937 22.7477 8.78906 22.7477 11.9906C22.7477 15.1969 22.7336 15.5766 22.6773 16.8375C22.6258 18.0094 22.4289 18.6422 22.2648 19.0641C22.0492 19.6219 21.7867 20.025 21.3695 20.4422C20.9477 20.8641 20.5492 21.1219 19.9914 21.3375C19.5695 21.5016 18.932 21.6984 17.7648 21.75C16.4992 21.8063 16.1195 21.8203 12.918 21.8203C9.71172 21.8203 9.33203 21.8063 8.07109 21.75C6.89922 21.6984 6.26641 21.5016 5.84453 21.3375C5.28672 21.1219 4.88359 20.8594 4.46641 20.4422C4.04453 20.0203 3.78672 19.6219 3.57109 19.0641C3.40703 18.6422 3.21016 18.0047 3.15859 16.8375C3.10234 15.5719 3.08828 15.1922 3.08828 11.9906C3.08828 8.78438 3.10234 8.40469 3.15859 7.14375C3.21016 5.97187 3.40703 5.33906 3.57109 4.91719C3.78672 4.35938 4.04922 3.95625 4.46641 3.53906C4.88828 3.11719 5.28672 2.85938 5.84453 2.64375C6.26641 2.47969 6.90391 2.28281 8.07109 2.23125C9.33203 2.175 9.71172 2.16094 12.918 2.16094ZM12.918 0C9.66016 0 9.25234 0.0140625 7.97266 0.0703125C6.69766 0.126563 5.82109 0.332812 5.06172 0.628125C4.26953 0.9375 3.59922 1.34531 2.93359 2.01562C2.26328 2.68125 1.85547 3.35156 1.54609 4.13906C1.25078 4.90313 1.04453 5.775 0.988281 7.05C0.932031 8.33437 0.917969 8.74219 0.917969 12C0.917969 15.2578 0.932031 15.6656 0.988281 16.9453C1.04453 18.2203 1.25078 19.0969 1.54609 19.8563C1.85547 20.6484 2.26328 21.3188 2.93359 21.9844C3.59922 22.65 4.26953 23.0625 5.05703 23.3672C5.82109 23.6625 6.69297 23.8687 7.96797 23.925C9.24766 23.9812 9.65547 23.9953 12.9133 23.9953C16.1711 23.9953 16.5789 23.9812 17.8586 23.925C19.1336 23.8687 20.0102 23.6625 20.7695 23.3672C21.557 23.0625 22.2273 22.65 22.893 21.9844C23.5586 21.3188 23.9711 20.6484 24.2758 19.8609C24.5711 19.0969 24.7773 18.225 24.8336 16.95C24.8898 15.6703 24.9039 15.2625 24.9039 12.0047C24.9039 8.74688 24.8898 8.33906 24.8336 7.05938C24.7773 5.78438 24.5711 4.90781 24.2758 4.14844C23.9805 3.35156 23.5727 2.68125 22.9023 2.01562C22.2367 1.35 21.5664 0.9375 20.7789 0.632812C20.0148 0.3375 19.143 0.13125 17.868 0.075C16.5836 0.0140625 16.1758 0 12.918 0Z" fill="white"></path><path d="M12.918 5.83594C9.51484 5.83594 6.75391 8.59688 6.75391 12C6.75391 15.4031 9.51484 18.1641 12.918 18.1641C16.3211 18.1641 19.082 15.4031 19.082 12C19.082 8.59688 16.3211 5.83594 12.918 5.83594ZM12.918 15.9984C10.7102 15.9984 8.91953 14.2078 8.91953 12C8.91953 9.79219 10.7102 8.00156 12.918 8.00156C15.1258 8.00156 16.9164 9.79219 16.9164 12C16.9164 14.2078 15.1258 15.9984 12.918 15.9984Z" fill="white"></path><path d="M20.7648 5.59214C20.7648 6.38902 20.118 7.0312 19.3258 7.0312C18.5289 7.0312 17.8867 6.38433 17.8867 5.59214C17.8867 4.79526 18.5336 4.15308 19.3258 4.15308C20.118 4.15308 20.7648 4.79995 20.7648 5.59214Z" fill="white"></path></g><defs><clipPath id="clip0_1_4658"><rect width="24" height="24" fill="white" transform="translate(0.917969)"></rect></clipPath></defs></svg>