<svg class="tw-w-[16px] tw-h-[21px] xl:tw-w-[22px] xl:tw-h-[28px]" viewBox="0 0 16 21" fill="none" xmlns="http://www.w3.org/2000/svg"><path d="M13.3825 20.0359H1.91179C1.40475 20.0359 0.918478 19.8345 0.559949 19.476C0.20142 19.1175 0 18.6312 0 18.1241V2.82986C0 2.32283 0.20142 1.83656 0.559949 1.47803C0.918478 1.1195 1.40475 0.918077 1.91179 0.918077H8.60303C8.6116 0.916956 8.62028 0.916956 8.62884 0.918077H8.63458C8.64361 0.920899 8.65289 0.92282 8.6623 0.923813C8.74642 0.929548 8.82958 0.945798 8.90987 0.972563H8.95002C8.96766 0.984912 8.98429 0.998658 8.99973 1.01367C9.10386 1.05997 9.19875 1.12474 9.27981 1.20485L15.0152 6.9402C15.0953 7.02125 15.1601 7.11614 15.2063 7.22028C15.2147 7.24095 15.222 7.262 15.2283 7.28337L15.2379 7.31013C15.2646 7.38947 15.2799 7.47263 15.2847 7.55675C15.2856 7.56627 15.2878 7.57562 15.2914 7.58447V7.59021C15.2929 7.59648 15.2939 7.60288 15.2943 7.60933V18.1241C15.2943 18.6312 15.0929 19.1175 14.7343 19.476C14.3758 19.8345 13.8895 20.0359 13.3825 20.0359ZM9.96422 12.3888V17.1683H10.8628V15.2182H12.2584V14.4172H10.8628V13.1927H12.4266V12.3888H9.96422ZM6.42742 12.3888V17.1683H7.58023C7.819 17.1801 8.05737 17.1381 8.27774 17.0454C8.49812 16.9528 8.69487 16.8118 8.85348 16.633C9.18316 16.2123 9.34831 15.6859 9.31804 15.1523V14.378C9.34028 13.85 9.17049 13.3318 8.8401 12.9193C8.52943 12.5656 8.07538 12.3706 7.60413 12.3888H6.42742ZM2.86768 12.3888V17.1683H3.76622V15.4868H4.36461C4.76417 15.5088 5.15417 15.3607 5.43903 15.0796C5.7104 14.7759 5.8512 14.3776 5.83095 13.9708C5.84868 13.5542 5.70797 13.1464 5.43712 12.8295C5.3048 12.6827 5.14164 12.5671 4.95934 12.4909C4.77705 12.4147 4.58014 12.3799 4.38277 12.3888H2.86768ZM8.60303 2.82986V7.60933H13.3825L8.60303 2.82986ZM7.59552 16.3672H7.32596V13.1927H7.65288C7.76712 13.186 7.88123 13.208 7.98477 13.2567C8.0883 13.3055 8.17796 13.3795 8.24553 13.4718C8.38605 13.7615 8.44627 14.0836 8.4195 14.4048V15.2354C8.44053 15.5413 8.37458 15.8472 8.22832 16.1158C8.15115 16.2059 8.05321 16.2759 7.94297 16.3197C7.83273 16.3635 7.71348 16.3798 7.59552 16.3672ZM4.38277 14.6829H3.76526V13.1927H4.39137C4.46826 13.1935 4.54368 13.2139 4.61056 13.2518C4.67744 13.2898 4.73358 13.3441 4.77373 13.4097C4.87696 13.5808 4.92667 13.7777 4.91711 13.9775C4.9291 14.1634 4.87973 14.3481 4.7766 14.5032C4.72972 14.5621 4.66963 14.609 4.60119 14.6402C4.53276 14.6714 4.45792 14.6861 4.38277 14.6829Z" fill="white"></path></svg>