<svg class="tw-w-[16px] tw-h-[13px] xl:tw-w-[22px] xl:tw-h-[17px]" viewBox="0 0 16 13" fill="none" xmlns="http://www.w3.org/2000/svg"><g clip-path="url(#clip0_1_4630)"><path d="M9.15556 9.76296C9.15556 11.2156 10.337 12.397 11.7896 12.397C13.2423 12.397 14.4237 11.2156 14.4237 9.76296C14.4237 9.63002 14.4034 9.50234 14.3839 9.37465H14.4132V1.88176H15.9154V0.379578H13.6621C13.4629 0.379578 13.2719 0.45871 13.131 0.599567C12.9902 0.740424 12.911 0.931467 12.911 1.13067V7.38951C12.5613 7.22027 12.1781 7.13148 11.7896 7.12964C11.0914 7.13023 10.4218 7.40784 9.92799 7.90153C9.43416 8.39523 9.15636 9.06468 9.15556 9.76296ZM0.893555 1.13067H11.4088V2.63285H0.893555V1.13067Z" fill="white"></path><path d="M0.893555 4.13544H11.4088V5.63762H0.893555V4.13544ZM0.893555 7.1398H7.65338V8.64199H0.893555V7.1398ZM0.893555 10.1442H7.65338V11.6464H0.893555V10.1442Z" fill="white"></path></g><defs><clipPath id="clip0_1_4630"><rect width="15.0218" height="12.0175" fill="white" transform="translate(0.893555 0.379578)"></rect></clipPath></defs></svg>