<svg class="tw-w-[16px] tw-h-[15px] xl:tw-w-[22px] xl:tw-h-[20px]" viewBox="0 0 16 15" fill="none" xmlns="http://www.w3.org/2000/svg"><path d="M6.91175 0.558716V4.85244H0.431289C1.11579 2.84409 2.8529 1.3046 5.0321 0.816697C5.6515 0.67802 6.28047 0.592026 6.91175 0.558716Z" fill="white"></path><path d="M8.11009 0.558716V9.42766H14.872C15.1101 8.07408 15.0644 6.68653 14.735 5.34598C14.1827 3.09862 12.3443 1.34386 9.98973 0.816697C9.37034 0.67802 8.74137 0.592027 8.11009 0.558716Z" fill="white"></path><path d="M14.5906 10.5715H8.11009V14.8652C8.74137 14.8319 9.37034 14.7459 9.98973 14.6072C12.169 14.1193 13.9061 12.5798 14.5906 10.5715Z" fill="white"></path><path d="M6.91175 14.8652V5.99624H0.149875C-0.0882672 7.34983 -0.0426144 8.7374 0.286833 10.078C0.839133 12.3253 2.67757 14.0801 5.0321 14.6072C5.6515 14.7459 6.28047 14.8319 6.91175 14.8652Z" fill="white"></path></svg>